<svg width="154" height="32" viewBox="0 0 154 32" fill="none" xmlns="http://www.w3.org/2000/svg">
<path d="M0.244629 19.5863V0.639771H6.2927V19.5863H0.244629Z" fill="#0071A2"/>
<path d="M24.0824 19.5863L16.1747 10.3883V19.5863H10.6294V0.639771H15.9086L23.8161 9.97535V0.639771H29.3614V19.5863H24.0824Z" fill="#0071A2"/>
<path d="M33.4019 19.5863V0.639771H38.9472V9.97535L46.8547 0.639771H52.1413V19.5863H46.596V10.3883L38.6883 19.5863H33.4019Z" fill="#0071A2"/>
<path d="M73.0696 2.81649C74.8416 4.48583 75.7264 6.91809 75.7239 10.113C75.7215 13.3078 74.8367 15.7401 73.0696 17.4095C71.3 19.0814 68.7923 19.9162 65.5464 19.9136C62.3006 19.9111 59.7977 19.0814 58.0381 17.4245C56.2783 15.7698 55.3984 13.3302 55.3984 10.1055C55.3984 6.88086 56.2783 4.44365 58.0381 2.79412C59.7977 1.13468 62.3006 0.30481 65.5464 0.30481C68.7923 0.30481 71.3 1.14204 73.0696 2.81649ZM62.5927 6.03868C61.9148 6.82742 61.5772 7.89163 61.5797 9.23116V10.9948C61.5797 12.3343 61.9173 13.3985 62.5927 14.1873C63.2655 14.9761 64.2525 15.3705 65.5501 15.3705C66.8477 15.3705 67.8347 14.9761 68.5077 14.1873C69.1805 13.3985 69.5317 12.3268 69.5317 10.9948V9.23116C69.5317 7.89163 69.1904 6.82742 68.5077 6.03868C67.8249 5.2498 66.8391 4.85543 65.5501 4.85543C64.2525 4.85543 63.2691 5.26841 62.5927 6.03868Z" fill="#0071A2"/>
<path d="M82.9176 19.5863L76.2412 0.639771H82.6995L86.474 13.2906H86.585L90.3854 0.639771H96.5702L89.9159 19.5863H82.9176Z" fill="#0071A2"/>
<path d="M110.138 19.5863L109.343 16.9147H102.752L101.957 19.5863H95.7754L102.641 0.639771H109.665L116.533 19.5863H110.138ZM104.008 12.6729H108.075L106.105 5.92703H105.997L104.008 12.6729Z" fill="#0071A2"/>
<path d="M127.757 5.48808V19.5863H121.709V5.48808H115.528V0.650879H133.912V5.48808H127.757Z" fill="#0071A2"/>
<path d="M136.673 0.639771H152.94V5.18288H142.718V7.78749H151.472V12.1408H142.718V15.0319H153.143V19.5751H136.673V0.639771Z" fill="#0071A2"/>
<path d="M5.72322 26.8939C5.73068 27.2967 5.62983 27.6939 5.43111 28.0435C5.23643 28.3809 4.94701 28.6527 4.59941 28.8249C4.19662 29.0171 3.75473 29.1113 3.30912 29.1002H1.6678V31.4444H0.285156V24.7879H3.24258C3.90466 24.74 4.56152 24.9357 5.09113 25.3385C5.3058 25.5332 5.47423 25.7743 5.58358 26.0435C5.69308 26.3128 5.74082 26.6034 5.72322 26.8939ZM4.32954 26.9161C4.32954 26.2191 3.91913 25.8707 3.09847 25.8707H1.6678V28.0287H3.14651C3.46651 28.0494 3.78233 27.947 4.02998 27.7422C4.13575 27.6342 4.2172 27.5044 4.26882 27.3618C4.32044 27.2194 4.34117 27.0674 4.32954 26.9161Z" fill="#404D66"/>
<path d="M21.0356 31.4445L20.4516 29.7441H17.9302L17.3424 31.4445H15.9487L18.3591 24.788H20.0153L22.4183 31.4445H21.0356ZM19.1872 25.8112L19.1577 25.9154C19.128 26.0307 19.0911 26.1572 19.0467 26.2875C19.0024 26.4177 18.7325 27.2288 18.2408 28.68H20.141L19.4866 26.7675L19.287 26.1237L19.1872 25.8112Z" fill="#404D66"/>
<path d="M33.6938 31.4445V24.788H35.0802V31.4445H33.6938Z" fill="#404D66"/>
<path d="M50.7624 31.4445L47.8824 26.3172C47.9308 26.7161 47.958 27.1172 47.9638 27.5191V31.4445H46.7363V24.788H48.3186L51.2429 29.9562C51.1878 29.5255 51.1595 29.0918 51.1579 28.6576V24.788H52.3852V31.4445H50.7624Z" fill="#404D66"/>
<path d="M73.6612 30.4399C74.0497 30.4534 74.4316 30.3363 74.7468 30.1073C75.062 29.8783 75.2927 29.5502 75.4023 29.1748L76.6076 29.6325C76.3907 30.2228 75.99 30.7266 75.4653 31.0687C74.9197 31.393 74.2943 31.5556 73.6612 31.5376C73.2101 31.5665 72.7579 31.5008 72.3335 31.3445C71.9089 31.1882 71.5213 30.9447 71.1953 30.6296C70.5819 29.9308 70.2693 29.0154 70.3265 28.0846C70.3265 26.9907 70.6038 26.1535 71.1658 25.5656C71.7276 24.9777 72.5372 24.6875 73.602 24.6875C74.2655 24.659 74.9236 24.8216 75.4985 25.1564C75.9929 25.4809 76.3571 25.9712 76.5263 26.5405L75.3025 26.8754C75.2042 26.5441 74.9885 26.2608 74.6962 26.0792C74.3765 25.8777 74.0049 25.7755 73.6279 25.7852C73.3621 25.767 73.0956 25.8101 72.849 25.9115C72.6023 26.0126 72.3819 26.1692 72.2046 26.3693C71.8477 26.8659 71.6762 27.4733 71.7203 28.0846C71.6776 28.7096 71.8543 29.3299 72.2193 29.8371C72.3979 30.0419 72.6208 30.2025 72.8707 30.307C73.1206 30.4116 73.391 30.457 73.6612 30.4399Z" fill="#404D66"/>
<path d="M87.894 31.4445V24.788H89.2804V30.3692H92.8443V31.4482L87.894 31.4445Z" fill="#404D66"/>
<path d="M104.149 31.4445V24.788H105.532V31.4445H104.149Z" fill="#404D66"/>
<path d="M121.225 31.4445L118.353 26.3172C118.402 26.7161 118.43 27.1172 118.438 27.5191V31.4445H117.207V24.788H118.789L121.713 29.9562C121.66 29.5253 121.631 29.0918 121.628 28.6576V24.788H122.859V31.4445H121.225Z" fill="#404D66"/>
<path d="M134.522 31.4445V24.788H135.905V31.4445H134.522Z" fill="#404D66"/>
<path d="M150.659 30.4398C151.047 30.4533 151.429 30.3363 151.746 30.1073C152.06 29.8782 152.292 29.5502 152.4 29.1748L153.609 29.6325C153.39 30.2207 152.99 30.7234 152.468 31.0687C151.92 31.3931 151.294 31.5557 150.659 31.5375C150.209 31.566 149.757 31.5 149.332 31.3437C148.908 31.1876 148.52 30.9444 148.193 30.6296C147.58 29.9308 147.267 29.0153 147.325 28.0846C147.325 26.9907 147.606 26.1534 148.164 25.5656C148.722 24.9777 149.536 24.6875 150.6 24.6875C151.264 24.6585 151.922 24.8213 152.497 25.1563C152.991 25.4809 153.355 25.9712 153.524 26.5404L152.305 26.8754C152.204 26.5445 151.987 26.2617 151.695 26.0791C151.376 25.8771 151.003 25.7748 150.627 25.7852C150.361 25.767 150.094 25.8101 149.848 25.9114C149.6 26.0126 149.381 26.1692 149.203 26.3693C148.848 26.867 148.677 27.4736 148.719 28.0846C148.675 28.7095 148.853 29.3297 149.218 29.8371C149.396 30.0417 149.62 30.2025 149.869 30.307C150.119 30.4116 150.389 30.4569 150.659 30.4398Z" fill="#404D66"/>
</svg>
