<svg width="96" height="97" viewBox="0 0 96 97" fill="none" xmlns="http://www.w3.org/2000/svg">
<path d="M95.6 48.4096C95.6 74.7506 74.288 96.1028 48 96.1028C21.712 96.1028 0.4 74.7506 0.4 48.4096C0.4 22.0686 21.712 0.716406 48 0.716406C74.288 0.716406 95.6 22.0686 95.6 48.4096Z" fill="white" stroke="#C8BFA9" stroke-width="0.8"/>
<path d="M64.4453 25.8602C63.9257 25.8758 63.4326 26.0933 63.0703 26.4669L56.707 32.8425L52.6406 31.9854C50.5568 31.5462 48.4541 32.8665 47.9375 34.9364L47.9922 34.7564L44.1133 45.7347C43.9866 46.0917 43.9635 46.4775 44.0468 46.8471C44.13 47.2168 44.3161 47.5552 44.5836 47.8232C44.851 48.0911 45.1888 48.2776 45.5577 48.361C45.9266 48.4444 46.3116 48.4213 46.668 48.2943L57.625 44.4079L57.4453 44.4627C59.5112 43.9451 60.829 41.8384 60.3906 39.7504L59.5352 35.6761L65.8984 29.3005C66.1874 29.019 66.3848 28.6567 66.4648 28.2608C66.5447 27.865 66.5034 27.4543 66.3463 27.0824C66.1892 26.7105 65.9237 26.3948 65.5845 26.1767C65.2452 25.9587 64.8482 25.8483 64.4453 25.8602ZM51.8164 35.9071L55.6641 36.7211L56.4766 40.5763C56.4145 40.5916 56.3533 40.6099 56.293 40.6311L49.2852 43.1124L51.7617 36.091C51.7829 36.0306 51.8011 35.9692 51.8164 35.9071ZM40 52.4156C39.4696 52.4157 38.9609 52.6268 38.5858 53.0026C38.2108 53.3784 38.0001 53.8881 38 54.4195V60.4312H30C29.4696 60.4312 28.9609 60.6423 28.5858 61.0181C28.2108 61.3939 28.0001 61.9036 28 62.435V70.4506C28.0001 70.982 28.2108 71.4917 28.5858 71.8675C28.9609 72.2433 29.4696 72.4544 30 72.4545H48H66C66.5304 72.4544 67.0391 72.2433 67.4142 71.8675C67.7892 71.4917 67.9999 70.982 68 70.4506V62.435C67.9999 61.9036 67.7892 61.3939 67.4142 61.0181C67.0391 60.6423 66.5304 60.4312 66 60.4312H58V54.4195C57.9999 53.8881 57.7892 53.3784 57.4142 53.0026C57.0391 52.6268 56.5304 52.4157 56 52.4156H40ZM42 56.4234H54V60.4312H48H42V56.4234ZM32 64.4389H40H46V68.4467H32V64.4389ZM50 64.4389H56H64V68.4467H50V64.4389Z" fill="black"/>
</svg>
